<svg width="375" height="364" viewBox="0 0 375 364" fill="none" xmlns="http://www.w3.org/2000/svg"><path fill-rule="evenodd" clip-rule="evenodd" d="M177.201 147.912C147.441 155.954 140.798 195.889 166.574 212.506C193.943 229.662 230.078 208.218 221.044 173.644C217.06 157.828 198.992 142.017 177.201 147.912ZM183.577 0.228115C163.915 3.17562 150.897 17.1121 151.694 38.8231C152.223 63.2146 137.878 76.0779 128.042 87.6061C125.121 91.0877 122.196 92.7001 119.275 95.9146C104.395 111.998 91.1093 126.201 73.0415 139.337C49.9246 156.221 33.9803 139.07 15.3828 153.006C-12.7832 174.445 1.29981 213.045 28.9311 217.867C40.0937 219.746 61.8789 214.652 79.9519 238.238C86.0602 246.012 88.1889 252.174 90.3124 263.435C92.1737 274.157 95.0941 281.927 107.054 282.733C118.746 283.534 126.186 278.712 131.235 271.744C136.814 264.236 138.937 254.855 133.358 246.012C128.839 238.777 119.008 237.971 108.38 235.824C97.2228 233.416 91.9063 226.982 86.3276 221.621C66.3985 201.25 65.3342 171.764 88.4511 147.645C94.2972 141.745 98.8167 135.583 105.722 128.882L141.595 93.2341C157.272 79.5646 162.321 72.5964 191.017 70.7169C221.841 68.5756 234.063 27.5671 209.62 7.99743C204.303 3.70968 193.146 -1.11216 183.577 0.228115ZM257.447 81.1719C248.414 84.1194 242.038 89.7474 238.845 98.0559C234.86 108.511 238.845 119.767 246.285 124.06C260.903 132.635 270.466 119.233 291.727 149.786C302.355 165.068 306.607 185.434 295.974 204.464C287.207 220.547 256.65 247.085 240.444 264.776C204.571 303.371 190.487 287.021 172.42 295.062C156.743 301.763 145.58 320.255 154.614 341.966C165.777 369.844 207.229 372.524 219.451 342.772C223.965 331.783 219.98 322.134 223.703 310.606C230.078 291.308 274.986 248.153 290.93 234.484C319.893 210.098 323.343 219.474 343.54 217.6C375.161 214.919 384.457 173.911 361.34 155.687C352.841 148.985 346.46 147.645 333.709 147.645C312.715 147.645 295.974 132.368 288.801 120.573C282.955 110.924 285.084 72.3293 257.447 81.1719Z" fill="#fff"/></svg>
