<svg width="285" height="364" viewBox="0 0 285 364" fill="none" xmlns="http://www.w3.org/2000/svg"><path fill-rule="evenodd" clip-rule="evenodd" d="M95.0508 47.386C95.0508 66.8268 106.774 83.5332 123.545 90.8398V235.995L123.096 233.662C117.099 202.511 110.146 181.319 102.714 164.882C96.8077 151.818 90.5881 141.864 85.3587 133.494L85.3552 133.489L85.1371 133.139C91.2596 125.159 94.8979 115.177 94.8979 104.346C94.8979 78.1759 73.6543 56.9605 47.4489 56.9605C21.2436 56.9605 0 78.1759 0 104.346C0 130.517 21.2436 151.732 47.4489 151.732C48.9582 151.732 50.4511 151.662 51.9244 151.524L53.6663 154.323C58.7472 162.474 63.3867 169.917 68.1566 180.466C73.9512 193.282 79.9444 210.875 85.3826 238.365H77.2824C66.8118 238.365 58.3236 246.842 58.3236 257.299V345.066C58.3236 355.523 66.8118 364 77.2824 364H145.606C145.675 364 145.743 364 145.811 363.999H203.927C214.398 363.999 222.886 355.522 222.886 345.065V257.298C222.886 246.841 214.398 238.364 203.927 238.364H199.581C205.059 208.043 210.872 191.022 216.327 179.336C219.136 173.32 221.996 168.402 225.072 163.405C225.788 162.242 226.548 161.024 227.338 159.76C228.954 157.171 230.694 154.386 232.432 151.46C234.114 151.64 235.822 151.732 237.551 151.732C263.756 151.732 285 130.517 285 104.346C285 78.1759 263.756 56.9605 237.551 56.9605C211.346 56.9605 190.102 78.1759 190.102 104.346C190.102 114.966 193.6 124.769 199.508 132.671C198.243 134.784 196.951 136.855 195.556 139.088L195.555 139.09L195.553 139.094L195.548 139.101C194.669 140.51 193.749 141.983 192.77 143.573C189.334 149.155 185.64 155.456 181.961 163.335C174.571 179.165 167.824 200.118 161.853 233.95L161.462 236.167V90.8366C178.229 83.5283 189.949 66.8239 189.949 47.386C189.949 21.2154 168.705 0 142.5 0C116.294 0 95.0508 21.2154 95.0508 47.386ZM96.2412 326.132H184.968V276.233H96.2412V326.132ZM123.489 47.386C123.489 54.5853 127.501 60.8486 133.415 64.0674C140.622 66.1269 144.602 66.0533 151.585 64.0674C157.498 60.8486 161.51 54.5853 161.51 47.386C161.51 36.9006 152.999 28.4005 142.5 28.4005C132 28.4005 123.489 36.9006 123.489 47.386ZM55.354 121.618L59.1201 119.334C63.5867 115.86 66.4597 110.438 66.4597 104.346C66.4597 93.861 57.9483 85.3609 47.4489 85.3609C36.9496 85.3609 28.4382 93.861 28.4382 104.346C28.4382 114.832 36.9496 123.332 47.4489 123.332C50.2696 123.332 52.9468 122.719 55.354 121.618ZM218.54 104.346C218.54 114.832 227.052 123.332 237.551 123.332C248.05 123.332 256.562 114.832 256.562 104.346C256.562 93.861 248.05 85.3609 237.551 85.3609C227.052 85.3609 218.54 93.861 218.54 104.346Z" fill="#fff"/></svg>
