<svg width="271" height="364" viewBox="0 0 271 364" fill="none" xmlns="http://www.w3.org/2000/svg"><path fill-rule="evenodd" clip-rule="evenodd" d="M112.567 4.10135C129.34 -1.67084 151.273 -1.35029 170.303 5.06327C191.913 12.4395 267.064 84.591 270.29 101.266C274.483 122.752 259.647 140.71 237.714 140.71H226.425V305.329L226.414 305.303V331.221C226.414 349.324 211.209 364 192.452 364H33.9619C15.2052 364 0 349.324 0 331.221V287.517C1.44343e-06 282.748 0.0351469 278.216 0.430664 274.128L1.29004 221.52C2.25766 171.816 2.90288 167.005 10.3213 153.537C20.32 135.9 40.3176 121.469 58.3799 119.224C69.3463 117.621 71.6042 116.338 69.6689 112.17C58.0575 84.5916 56.4451 71.7642 62.5732 53.8064C69.9917 31.359 89.3444 12.439 112.567 4.10135ZM33.9619 276.592C27.7098 276.592 22.6418 281.483 22.6416 287.517V331.221C22.6416 337.256 27.7097 342.147 33.9619 342.147H192.452C198.704 342.147 203.772 337.256 203.772 331.221V287.517C203.772 281.483 198.704 276.592 192.452 276.592H33.9619ZM56.6035 298.444C62.8557 298.444 67.9238 303.336 67.9238 309.37C67.9237 315.404 62.8556 320.296 56.6035 320.296C50.3514 320.296 45.2834 315.404 45.2832 309.37C45.2832 303.336 50.3513 298.444 56.6035 298.444ZM113.207 298.444C119.459 298.444 124.527 303.336 124.527 309.37C124.527 315.404 119.459 320.296 113.207 320.296H101.887C95.6346 320.296 90.5656 315.404 90.5654 309.37C90.5654 303.336 95.6345 298.444 101.887 298.444H113.207ZM169.811 298.444C176.063 298.444 181.131 303.336 181.131 309.37C181.131 315.404 176.063 320.296 169.811 320.296H158.489C152.237 320.295 147.169 315.404 147.169 309.37C147.169 303.336 152.237 298.444 158.489 298.444H169.811ZM157.724 26.8689C132.888 19.4933 112.567 25.9074 94.5049 46.1101C86.119 55.4096 84.5059 60.2198 84.5059 73.0467C84.5059 100.304 105.149 121.148 127.727 116.979C140.628 114.414 149.982 105.115 149.982 94.2117C149.982 81.7053 143.208 75.6125 131.274 77.8572C123.211 79.4605 119.663 78.1775 113.857 72.0848L106.439 64.3885L115.471 58.616C126.437 51.2408 145.144 51.5614 156.11 58.616C174.818 70.8018 179.979 102.549 166.109 120.828C154.175 136.862 141.274 140.71 100.634 140.71C58.0582 140.71 45.8012 144.879 33.8672 162.837C26.7713 173.098 26.4482 176.947 26.4482 224.407V254.74H60.2168V209.616C60.2168 202.3 66.1474 196.368 73.4639 196.368C80.7803 196.368 86.7119 202.3 86.7119 209.616V254.74H139.702V209.616C139.702 202.3 145.634 196.368 152.95 196.368C160.266 196.368 166.197 202.3 166.197 209.616V254.74H200.621V118.583L222.231 117.621C254.808 116.338 253.841 111.849 209.652 67.9158C179.334 37.7725 170.625 30.7171 157.724 26.8689Z" fill="#fff"/></svg>
